HIERARCHY
ROOT Hips
{
	OFFSET 0.000000 0.000000 0.000000
	CHANNELS 6 Xposition Yposition Zposition Zrotation Yrotation Xrotation 
	JOINT LHipJoint
	{
		OFFSET 0.000000 0.000000 0.000000
		CHANNELS 3 Zrotation Yrotation Xrotation
		JOINT LeftUpLeg
		{
			OFFSET 1.363060 -1.794630 0.839290
			CHANNELS 3 Zrotation Yrotation Xrotation
			JOINT LeftLeg
			{
				OFFSET 2.448110 -6.726130 0.000000
				CHANNELS 3 Zrotation Yrotation Xrotation
				JOINT LeftFoot
				{
					OFFSET 2.562200 -7.039590 0.000000
					CHANNELS 3 Zrotation Yrotation Xrotation
					JOINT LeftToeBase
					{
						OFFSET 0.157640 -0.433110 2.322550
						CHANNELS 3 Zrotation Yrotation Xrotation
						End Site
						{
							OFFSET 0.000000 0.000000 0.000000
						}
					}
				}
			}
		}
	}
	JOINT RHipJoint
	{
		OFFSET 0.000000 0.000000 0.000000
		CHANNELS 3 Zrotation Yrotation Xrotation
		JOINT RightUpLeg
		{
			OFFSET -1.305520 -1.794630 0.839290
			CHANNELS 3 Zrotation Yrotation Xrotation
			JOINT RightLeg
			{
				OFFSET -2.542530 -6.985550 0.000000
				CHANNELS 3 Zrotation Yrotation Xrotation
				JOINT RightFoot
				{
					OFFSET -2.568260 -7.056230 0.000000
					CHANNELS 3 Zrotation Yrotation Xrotation
					JOINT RightToeBase
					{
						OFFSET -0.164730 -0.452590 2.363150
						CHANNELS 3 Zrotation Yrotation Xrotation
						End Site
						{
							OFFSET 0.000000 0.000000 0.000000
						}
					}
				}
			}
		}
	}
	JOINT LowerBack
	{
		OFFSET 0.000000 0.000000 0.000000
		CHANNELS 3 Zrotation Yrotation Xrotation
		JOINT Spine
		{
			OFFSET 0.028270 2.035590 -0.193380
			CHANNELS 3 Zrotation Yrotation Xrotation
			JOINT Spine1
			{
				OFFSET 0.056720 2.048850 -0.042750
				CHANNELS 3 Zrotation Yrotation Xrotation
				JOINT Neck
				{
					OFFSET 0.000000 0.000000 0.000000
					CHANNELS 3 Zrotation Yrotation Xrotation
					JOINT Neck1
					{
						OFFSET -0.054170 1.746240 0.172020
						CHANNELS 3 Zrotation Yrotation Xrotation
						JOINT Head
						{
							OFFSET 0.104070 1.761360 -0.123970
							CHANNELS 3 Zrotation Yrotation Xrotation
							End Site
							{
								OFFSET 0.000000 0.000000 0.000000
							}
						}
					}
				}
				JOINT LeftShoulder
				{
					OFFSET 0.000000 0.000000 0.000000
					CHANNELS 3 Zrotation Yrotation Xrotation
					JOINT LeftArm
					{
						OFFSET 3.362410 1.200890 -0.311210
						CHANNELS 3 Zrotation Yrotation Xrotation
						JOINT LeftForeArm
						{
							OFFSET 4.983000 -0.000000 -0.000000
							CHANNELS 3 Zrotation Yrotation Xrotation
							JOINT LeftHand
							{
								OFFSET 3.483560 -0.000000 -0.000000
								CHANNELS 3 Zrotation Yrotation Xrotation
								JOINT LeftFingerBase
								{
									OFFSET 0.000000 0.000000 0.000000
									CHANNELS 3 Zrotation Yrotation Xrotation
									JOINT LeftHandIndex1
									{
										OFFSET 0.715260 -0.000000 -0.000000
										CHANNELS 3 Zrotation Yrotation Xrotation
										End Site
										{
											OFFSET 0.000000 0.000000 0.000000
										}
									}
								}
								JOINT LThumb
								{
									OFFSET 0.000000 0.000000 0.000000
									CHANNELS 3 Zrotation Yrotation Xrotation
									End Site
									{
										OFFSET 0.000000 0.000000 0.000000
									}
								}
							}
						}
					}
				}
				JOINT RightShoulder
				{
					OFFSET 0.000000 0.000000 0.000000
					CHANNELS 3 Zrotation Yrotation Xrotation
					JOINT RightArm
					{
						OFFSET -3.136600 1.374050 -0.404650
						CHANNELS 3 Zrotation Yrotation Xrotation
						JOINT RightForeArm
						{
							OFFSET -5.241900 -0.000000 -0.000000
							CHANNELS 3 Zrotation Yrotation Xrotation
							JOINT RightHand
							{
								OFFSET -3.444170 -0.000000 -0.000000
								CHANNELS 3 Zrotation Yrotation Xrotation
								JOINT RightFingerBase
								{
									OFFSET 0.000000 0.000000 0.000000
									CHANNELS 3 Zrotation Yrotation Xrotation
									JOINT RightHandIndex1
									{
										OFFSET -0.622530 -0.000000 -0.000000
										CHANNELS 3 Zrotation Yrotation Xrotation
										End Site
										{
											OFFSET 0.000000 0.000000 0.000000
										}
									}
								}
								JOINT RThumb
								{
									OFFSET 0.000000 0.000000 0.000000
									CHANNELS 3 Zrotation Yrotation Xrotation
									End Site
									{
										OFFSET 0.000000 0.000000 0.000000
									}
								}
							}
						}
					}
				}
			}
		}
	}
}
MOTION
Frames: 12
Frame Time: 0.008333
0.462905 18.080229 13.439479 -6.018280 -3.578180 3.640564 -2.202108 3.220452 1.794590 -5.513961 -9.588550 -29.893503 -0.834966 7.294336 20.258292 -1.595460 8.735255 12.338447 0.271500 -3.351800 -9.259700 3.783670 -4.752763 5.976666 26.909358 10.517097 -1.510110 -0.039638 -4.852544 20.632195 2.274901 -7.897529 -1.198470 -0.018300 -0.872400 2.397900 6.505506 1.643532 5.913062 3.573940 2.998785 1.668897 -2.129153 1.340763 -7.589057 -5.247233 -4.191859 -16.024286 2.867750 -4.518701 17.680365 -0.388700 -1.916400 9.427100 -7.286760 2.676030 -1.344111 -80.569069 7.581354 21.887627 10.249271 -18.170565 -1.776634 -0.830384 -1.000580 -3.760303 26.550053 16.311931 8.746600 -7.125000 0.000000 0.000000 -0.465600 49.242100 -0.048700 11.358821 -1.278845 -2.197359 71.452191 9.700499 22.085244 -14.597462 27.781808 -4.477686 1.122280 -0.381932 -3.952995 -18.871201 22.652875 -8.071000 7.125000 0.000000 0.000000 5.650300 -5.796000 5.076100 
0.483277 18.073472 13.613547 -6.161411 -3.790792 3.851938 -2.343799 3.197799 1.704885 -4.789683 -10.316505 -29.535089 -1.235779 6.417818 17.724334 -1.715498 9.209938 12.485171 0.280400 -3.406000 -9.411200 3.820926 -4.785073 6.072501 26.798872 10.380666 -0.962349 0.045371 -4.695043 20.194578 2.103000 -7.445733 -1.152648 -0.022800 -0.975400 2.681100 6.709581 1.718286 5.704791 3.602751 3.090937 1.755458 -2.199644 1.402122 -7.375085 -5.239744 -4.074813 -16.006911 2.931877 -4.373856 17.420035 -0.354200 -1.849900 9.337200 -7.280511 2.672723 -1.350407 -80.680727 7.701802 21.859567 10.374525 -18.368173 -1.819539 -0.832596 -1.006696 -3.696396 26.686440 16.487706 8.886100 -7.125000 0.000000 0.000000 -0.360200 49.465400 -0.039700 11.342944 -1.266795 -2.189699 71.310891 10.136669 22.380683 -14.847988 28.090119 -4.602587 1.121490 -0.361624 -4.139762 -19.077127 22.433043 -8.081400 7.125000 0.000000 0.000000 5.501900 -6.009000 4.918900 
0.503649 18.066816 13.789734 -6.025840 -3.975086 4.053930 -2.509878 3.191472 1.619086 -4.306841 -11.150185 -29.147204 -1.590592 5.522191 15.257519 -1.835997 9.614402 12.474242 0.293200 -3.482100 -9.624100 3.866316 -4.839209 6.174835 26.366948 10.353555 -0.470677 0.137098 -4.552417 19.752696 1.924415 -6.971523 -0.911919 -0.039400 -1.281300 3.523200 6.626513 1.773750 5.599751 3.554908 3.141692 1.702959 -2.194705 1.437575 -7.371440 -5.220663 -4.033977 -15.695962 2.797830 -4.342541 17.116009 -0.400200 -1.858500 9.177500 -7.274773 2.658976 -1.345632 -80.904147 7.732186 21.212708 10.292082 -18.231471 -1.789891 -0.843680 -0.996543 -3.666848 26.856161 16.219503 8.816400 -7.125000 0.000000 0.000000 -0.136300 49.188300 -0.014100 11.336754 -1.276872 -2.204536 71.194027 10.167545 22.876842 -15.123736 28.443299 -4.737958 1.129822 -0.346833 -4.282711 -19.468586 22.383756 -8.231900 7.125000 0.000000 0.000000 5.246200 -6.012700 4.687900 
0.519180 18.044427 13.964609 -6.244969 -4.167384 4.220884 -2.618286 3.200077 1.535302 -3.399853 -12.010701 -28.687861 -1.873793 4.647949 12.819897 -1.962027 10.103210 12.682687 0.245400 -3.188000 -8.802600 3.888036 -4.878332 6.265180 26.410623 10.195620 0.084005 0.196676 -4.421825 19.396326 1.831059 -6.715381 -0.735867 -0.028200 -1.084500 2.981300 6.852180 1.861582 5.647267 3.579543 3.285525 1.616303 -2.304843 1.498877 -7.465172 -5.270106 -4.062656 -15.603629 2.833116 -4.383578 17.140809 -0.384600 -1.876500 9.171000 -7.270856 2.665789 -1.344293 -81.003979 7.796257 20.720601 10.206024 -18.084614 -1.761722 -0.844161 -0.960435 -3.536484 26.655630 15.347211 8.299900 -7.125000 0.000000 0.000000 -0.194500 48.159000 -0.015200 11.330888 -1.273767 -2.206495 71.193201 10.155941 22.963778 -15.226707 28.568270 -4.775743 1.153335 -0.379203 -3.990592 -20.156318 23.020888 -8.768500 7.125000 0.000000 0.000000 4.863100 -5.216600 4.417100 
0.532391 18.020122 14.139383 -6.584322 -4.355739 4.376903 -2.696851 3.228120 1.455200 -2.356205 -12.937477 -28.194861 -2.081633 3.820558 10.503655 -2.176686 10.847424 12.896380 0.178800 -2.723600 -7.510000 3.895741 -4.911580 6.337811 26.648001 10.112696 0.641397 0.227189 -4.331235 19.171790 1.783911 -6.579825 -0.629857 -0.020600 -0.927700 2.549900 7.227442 1.974813 5.632802 3.595787 3.473771 1.563799 -2.505790 1.577488 -7.472991 -5.425650 -4.123783 -15.562064 3.075028 -4.464787 17.203298 -0.287600 -1.896500 9.191600 -7.265023 2.679495 -1.352175 -80.983761 7.985775 20.668017 10.294991 -18.241057 -1.790774 -0.844661 -1.000286 -3.551823 26.866010 16.349790 8.886200 -7.125000 0.000000 0.000000 -0.149600 49.339100 -0.016000 11.324345 -1.262183 -2.200773 71.191186 10.196668 22.919397 -15.272169 28.620437 -4.790563 1.165269 -0.404533 -4.006583 -20.420884 23.561342 -9.088800 7.125000 0.000000 0.000000 4.748400 -4.586300 4.368800 
0.547822 18.001767 14.317284 -6.646663 -4.460942 4.417346 -2.794519 3.288504 1.389295 -1.680489 -13.922633 -27.656798 -2.225308 3.103138 8.567312 -2.513608 11.795474 12.729866 0.157300 -2.555500 -7.043400 3.902790 -4.969076 6.426887 26.572373 9.984256 1.144399 0.253401 -4.278540 19.021906 1.726248 -6.444647 -0.825172 -0.013400 -0.746700 2.052100 7.314072 2.093868 5.829322 3.550350 3.661225 1.443786 -2.614067 1.651150 -7.685447 -5.354223 -4.146933 -15.542481 3.065704 -4.514008 17.383435 -0.306300 -1.908800 9.247900 -7.260175 2.687720 -1.358597 -80.979511 8.302546 20.605695 10.338560 -18.324316 -1.805267 -0.847127 -1.022571 -3.278812 26.964650 17.010098 9.258900 -7.125000 0.000000 0.000000 -0.168700 50.110200 -0.021200 11.324986 -1.264480 -2.199973 71.191961 10.153868 22.669397 -15.250819 28.590593 -4.779585 1.173486 -0.397384 -3.965565 -20.644932 23.408245 -9.137500 7.125000 0.000000 0.000000 4.588000 -4.715500 4.209100 
0.561436 17.986841 14.503051 -6.533641 -4.637668 4.403304 -2.890679 3.359720 1.380733 -1.479375 -14.273766 -27.189596 -2.356797 2.474448 6.917655 -2.717624 12.360918 12.588032 0.248100 -3.205000 -8.849900 3.901007 -5.038948 6.515309 26.306417 9.824860 1.661124 0.259260 -4.267656 18.954049 1.731909 -6.429078 -0.178723 -0.007400 -0.554000 1.522200 7.134970 2.203664 5.830214 3.508827 3.786093 1.440977 -2.564762 1.718053 -7.706491 -5.229552 -4.103850 -15.498069 2.987525 -4.479410 17.524096 -0.346800 -1.887400 9.284300 -7.261889 2.691621 -1.351150 -81.023019 8.463025 20.257252 10.067971 -17.880673 -1.719314 -0.882999 -0.886078 -2.651475 27.119813 13.708911 7.616100 -7.125000 0.000000 0.000000 0.502700 46.351500 0.016800 11.319495 -1.270378 -2.213253 71.124529 10.035335 22.747719 -15.477842 28.887407 -4.912765 1.157658 -0.337974 -4.228969 -20.439223 22.453664 -8.682900 7.125000 0.000000 0.000000 4.625900 -5.797700 4.148800 
0.575556 17.965764 14.688818 -6.570250 -4.860552 4.448092 -2.904878 3.373979 1.433527 -1.717194 -13.501530 -27.127008 -2.482130 2.017119 5.739658 -2.506690 11.772269 12.433341 0.307100 -3.562700 -9.849400 3.868116 -5.076252 6.564461 26.226129 9.730618 2.181957 0.249726 -4.277303 18.996197 1.631525 -6.157241 -0.023502 -0.001000 -0.204200 0.560900 7.034200 2.275618 5.702772 3.534822 3.853769 1.534962 -2.484144 1.771081 -7.567907 -5.003850 -3.966271 -15.468700 2.895406 -4.341698 17.422511 -0.398900 -1.820000 9.238100 -7.263673 2.685404 -1.344709 -81.150516 8.487740 19.461146 9.897398 -17.556174 -1.672259 -0.888454 -0.696000 -2.051184 26.479804 9.078954 5.012300 -7.125000 0.000000 0.000000 0.363600 40.925600 -0.036500 11.316014 -1.272872 -2.211437 71.069704 10.296178 22.842040 -15.570316 28.997849 -4.970227 1.139336 -0.303644 -4.541043 -20.059382 21.881986 -8.302000 7.125000 0.000000 0.000000 4.820700 -6.481400 4.261200 
0.594415 17.942164 14.883662 -6.432537 -4.857688 4.613414 -2.909906 3.366644 1.450038 -2.127837 -12.995804 -27.250101 -2.566263 1.743607 5.099182 -2.275142 11.009924 11.927935 0.237100 -3.133700 -8.651300 3.831102 -5.102922 6.617574 25.932836 9.560436 2.524969 0.229776 -4.323484 19.147298 1.449135 -5.688253 -0.136295 -0.001600 0.258800 -0.711000 6.881955 2.298299 5.398996 3.496705 3.838983 1.574960 -2.412905 1.783007 -7.383775 -4.974348 -3.932707 -15.589442 2.942128 -4.297322 17.384568 -0.385200 -1.792900 9.246400 -7.274972 2.686338 -1.353269 -81.320037 8.398130 19.196293 10.003398 -17.772992 -1.689705 -0.843923 -0.990082 -2.774966 26.405926 16.392085 8.733000 -7.125000 0.000000 0.000000 -0.625400 49.310400 -0.066500 11.322054 -1.256669 -2.195361 70.964643 10.601226 22.847623 -15.419101 28.797166 -4.883826 1.144961 -0.336429 -4.513351 -20.041624 22.411842 -8.491700 7.125000 0.000000 0.000000 4.880400 -5.900300 4.369100 
0.614686 17.915136 15.082237 -6.410961 -4.731809 4.691925 -2.888974 3.348914 1.449096 -2.455164 -12.638772 -27.436408 -2.599123 1.722340 5.100669 -1.967643 10.153453 11.964495 0.189600 -2.804000 -7.733400 3.778861 -5.121537 6.674250 25.817380 9.315860 2.976441 0.183942 -4.391481 19.391633 1.313544 -5.339155 -0.299161 -0.016300 0.823600 -2.263600 6.959556 2.306894 5.048847 3.419356 3.821409 1.662424 -2.489382 1.791812 -7.100222 -4.853268 -3.966988 -15.709133 2.949233 -4.364724 17.469128 -0.411400 -1.810500 9.293100 -7.278062 2.693131 -1.365439 -81.397484 8.379387 19.209953 10.149357 -18.013930 -1.736907 -0.864748 -1.014972 -3.558248 27.310249 16.638250 9.208500 -7.125000 0.000000 0.000000 0.263100 49.747300 0.030800 11.325171 -1.241477 -2.175970 70.996245 10.876871 22.583879 -15.190505 28.490751 -4.754448 1.157984 -0.378425 -4.077488 -20.310417 22.939161 -8.810400 7.125000 0.000000 0.000000 4.757000 -5.274700 4.314800 
0.634150 17.893353 15.276476 -6.210106 -4.539078 4.572290 -2.895756 3.345692 1.458530 -2.998399 -12.361122 -27.557072 -2.607389 1.887776 5.631630 -1.659084 9.369671 12.495133 0.147300 -2.473200 -6.815300 3.727753 -5.153820 6.737852 25.559275 9.114762 3.445454 0.106355 -4.529140 19.817711 1.202985 -5.055761 -0.391779 -0.021500 0.946200 -2.600700 6.818613 2.279735 4.979451 3.320544 3.758124 1.751011 -2.468246 1.775618 -6.994961 -4.805358 -4.026918 -15.890033 2.962314 -4.440101 17.705551 -0.422300 -1.832100 9.403400 -7.279499 2.710711 -1.362982 -81.342594 8.404742 19.082693 9.975884 -17.690422 -1.692020 -0.882724 -0.781078 -2.791903 26.744134 10.952250 6.060000 -7.125000 0.000000 0.000000 0.449800 43.121100 -0.020900 11.322632 -1.229285 -2.167320 71.062850 10.964311 22.212749 -15.158105 28.447978 -4.747905 1.139555 -0.380455 -3.887046 -19.896864 22.831887 -8.583300 7.125000 0.000000 0.000000 5.014900 -5.454900 4.533300 
0.655329 17.870359 15.467891 -6.211956 -4.432951 4.518757 -2.838707 3.302014 1.438123 -3.397755 -12.033972 -27.931219 -2.554698 2.306668 6.745057 -1.431796 8.830639 13.073488 0.169300 -2.650700 -7.307800 3.667134 -5.159722 6.768200 25.578793 9.092614 3.838754 -0.004906 -4.707971 20.393937 1.145546 -4.888753 -0.300466 -0.036600 1.234100 -3.393100 6.842984 2.268115 5.154631 3.293759 3.759021 1.685886 -2.515181 1.770267 -7.158671 -4.740716 -4.062383 -15.946514 2.922403 -4.493081 17.815337 -0.451900 -1.852500 9.448700 -7.295367 2.720136 -1.362047 -81.346093 8.293493 18.290636 9.702825 -17.311725 -1.588410 -0.891011 -0.985574 -1.919980 27.125123 16.598159 9.115400 -7.125000 0.000000 0.000000 0.083700 49.666300 0.009600 11.332861 -1.223511 -2.168509 71.060212 10.854479 21.982150 -15.093064 28.370695 -4.720432 1.134526 -0.377292 -3.745652 -19.765715 22.680154 -8.470500 7.125000 0.000000 0.000000 5.084500 -5.638900 4.578800 
